# xmcd
#
# Track frame offsets:
#	150
#	17879
#	30405
#	46941
#	62612
#	74286
#	94165
#	110801
#	123028
#	140058
#	153829
#	169213
#	188989
#	203434
#
# Disc length: 2995 seconds
#
# Revision: 0
# Processed by: cddbd v1.5.2PL0 Copyright (c) Steve Scherf et al.
# Submitted via: dBpowerAMP V4.0
#
DISCID=bb0bb10e
DTITLE=Eleven Hundred Springs - Bandwagon
DYEAR=2004
DGENRE=Country
TTITLE0=Northside Blues
TTITLE1=If I Was A Candle
TTITLE2=The Only Thing She Left Me Was The Blues
TTITLE3=Long Haired Tattooed Hippie Freaks
TTITLE4=Thunderbird Will Do Just Fine
TTITLE5=Gina From San Jose
TTITLE6=Can't Win For Losing
TTITLE7=Hank Williams Wouldn't Make It Now In Nashville Tennessee
TTITLE8=Swerving
TTITLE9=Brand New Pair Of Shoes
TTITLE10=A Straighter Line
TTITLE11=Why You Been Gone So Long
TTITLE12=See You In The Next Life
TTITLE13=The Rock Island Line
EXTD=Eleven Hundred Springs
EXTT0=
EXTT1=
EXTT2=
EXTT3=
EXTT4=
EXTT5=
EXTT6=
EXTT7=
EXTT8=
EXTT9=
EXTT10=
EXTT11=
EXTT12=
EXTT13=
PLAYORDER=
